# xmcd
# 
# Track frame offsets:
#     150
#     28480
#     41405
#     56705
#     87897
# 
# Disc length: 1483
# 
# Revision: 0
# Processed by: cddbd v1.5.2PL0 Copyright (c) Steve Scherf et al.
# Submitted via: fre:ac v1.0.17
# 
DISCID=3d05c905
DTITLE=The Darkside - Guitar Voodoo
DYEAR=1990
DGENRE=Rock
TTITLE0=Guitar Voodoo
TTITLE1=Found Love
TTITLE2=Don't Stop The Rain
TTITLE3=Soul Deep
TTITLE4=Waiting For The Angels
EXTD=
EXTT0=
EXTT1=
EXTT2=
EXTT3=
EXTT4=
PLAYORDER=
